# AST/ASF file generated using VICON BodyLanguage
# -----------------------------------------------
:version 1.10
:name VICON
:units
  mass 1.0
  length 0.45
  angle deg
:documentation
   .ast/.asf automatically generated from VICON data using
   VICON BodyBuilder and BodyLanguage model FoxedUp or BRILLIANT.MOD
:root
   order TX TY TZ RX RY RZ
   axis XYZ
   position 0 0 0  
   orientation 0 0 0 
:bonedata
  begin
     id 1 
     name lhipjoint
     direction 0.570549 -0.739093 0.358072 
     length 2.41801 
     axis 0 0 0  XYZ
  end
  begin
     id 2 
     name lfemur
     direction 0.34202 -0.939693 0  
     length 7.44434  
     axis 0 0 20  XYZ
    dof rx ry rz
    limits (-160.0 20.0)
           (-70.0 70.0)
           (-60.0 70.0)
  end
  begin
     id 3 
     name ltibia
     direction 0.34202 -0.939693 0   
     length 7.60047   
     axis 0 0 20   XYZ
    dof rx
    limits (-10.0 170.0)
  end
  begin
     id 4 
     name lfoot
     direction 0.0909041 -0.249757 0.964032   
     length 2.03437   
     axis -90 7.62852e-016 20   XYZ
    dof rx rz
    limits (-45.0 90.0)
           (-70.0 20.0)
  end
  begin
     id 5 
     name ltoes
     direction 1.53547e-011 -4.2174e-011 1   
     length 1.02054   
     axis -90 7.62852e-016 20   XYZ
    dof rx
    limits (-90.0 20.0)
  end
  begin
     id 6 
     name rhipjoint
     direction -0.558096 -0.746754 0.361784   
     length 2.3932  
     axis 0 0 0  XYZ 
  end
  begin
     id 7 
     name rfemur
     direction -0.34202 -0.939693 0   
     length 7.3886   
     axis 0 0 -20   XYZ
    dof rx ry rz
    limits (-160.0 20.0)
           (-70.0 70.0)
           (-70.0 60.0)
  end
  begin
     id 8 
     name rtibia
     direction -0.34202 -0.939693 0   
     length 7.4839   
     axis 0 0 -20   XYZ
    dof rx
    limits (-10.0 170.0)
 end
 begin
     id 9 
     name rfoot
     direction -0.114619 -0.314914 0.942174   
     length 2.25127  
     axis -90 -7.62852e-016 -20   XYZ
    dof rx rz
    limits (-45.0 90.0)
           (-20.0 70.0)
  end
  begin
     id 10 
     name rtoes
     direction -1.53518e-011 -4.21881e-011 1   
     length 1.11821   
     axis -90 -7.62852e-016 -20   XYZ
    dof rx
    limits (-90.0 20.0)
  end
  begin
     id 11 
     name lowerback
     direction -0.00902269 0.996426 -0.0839821   
     length 2.25052   
     axis 0 0 0   XYZ
    dof rx ry rz
    limits (-20.0 45.0)
           (-30.0 30.0)
           (-30.0 30.0)
  end
  begin
     id 12 
     name upperback
     direction 0.0370973 0.999169 -0.0168941   
     length 2.24876   
     axis 0 0 0   XYZ
    dof rx ry rz
    limits (-20.0 45.0)
           (-30.0 30.0)
           (-30.0 30.0)
  end
  begin
     id 13 
     name thorax
     direction 0.0402726 0.998931 0.0227027   
     length 2.26408   
     axis 0 0 0   XYZ
    dof rx ry rz
    limits (-20.0 45.0)
           (-30.0 30.0)
           (-30.0 30.0)
  end
  begin
     id 14 
     name lowerneck
     direction -0.0733697 0.98508 0.155675   
     length 1.58204   
     axis 0 0 0   XYZ
    dof rx ry rz
    limits (-20.0 45.0)
           (-30.0 30.0)
           (-30.0 30.0)
  end
  begin
     id 15 
     name upperneck
     direction 0.0426554 0.993501 -0.105526   
     length 1.61222   
     axis 0 0 0   XYZ
    dof rx ry rz
    limits (-20.0 45.0)
           (-30.0 30.0)
           (-30.0 30.0)
  end
  begin
     id 16
     name head
     direction 0.020792 0.998384 -0.0528868  
     length 1.61527  
     axis 0 0 0   XYZ
    dof rx ry rz
    limits (-20.0 45.0)
           (-30.0 30.0)
           (-30.0 30.0)
  end
  begin
     id 17 
     name lclavicle
     direction 0.967109 0.155462 -0.201325  
     length 3.59357  
     axis 0 0 0   XYZ
    dof ry rz
    limits (-20.0 10.0)
           (0.0 20.0)
  end
  begin
     id 18 
     name lhumerus
     direction 1 -4.48968e-011 2.38195e-027   
     length 5.38154   
     axis 180 -30 -90   XYZ
    dof rx ry rz
    limits (-60.0 90.0)
           (-90.0 90.0)
           (-90.0 90.0)
  end
  begin
     id 19
     name lradius
     direction 1 -4.48961e-011 4.85371e-027   
     length 3.33312   
     axis 180 -30 -90   XYZ
    dof rx
    limits (-10.0 170.0)
  end
  begin
     id 20
     name lwrist
     direction 1 -4.48961e-011 4.76515e-027   
     length 1.66656   
     axis -3.27502e-015 90 90   XYZ
    dof ry
    limits (-180.0 0.0)
 end
  begin
     id 21 
     name lhand
     direction 1 -4.48951e-011 9.53074e-027   
     length 0.710789   
     axis -6.08098e-015 90 90   XYZ
    dof rx rz
    limits (-90.0 90.0)
           (-45.0 45.0)
  end
  begin
     id 22 
     name lfingers
     direction 1 -4.48953e-011 1.90613e-026   
     length 0.573057   
     axis -1.21619e-014 90 90   XYZ
    dof rx
    limits (0.0 90.0)
  end
  begin
     id 23
     name lthumb
     direction 0.707107 -6.34973e-011 0.707107   
     length 0.822798   
     axis -90 45 -9.86923e-015   XYZ
    dof rx rz
    limits (-45.0 45.0)
           (-45.0 45.0)
  end
  begin
     id 24 
     name rclavicle
     direction -0.9585 0.265289 -0.104398   
     length 3.42039  
     axis 0 0 0   XYZ 
    dof ry rz
    limits (-10.0 20.0)
           (-20.0 0.0)
  end
  begin
     id 25 
     name rhumerus
     direction -1 -4.48977e-011 2.21478e-027  
     length 5.16954   
     axis 180 30 90   XYZ
    dof rx ry rz
    limits (-90.0 60.0)
           (-90.0 90.0)
           (-90.0 90.0)
  end
  begin
     id 26 
     name rradius
     direction -1 -4.48967e-011 5.63677e-027   
     length 3.38287   
     axis 180 30 90   XYZ
    dof rx
    limits (-10.0 170.0)
  end
  begin
     id 27 
     name rwrist
     direction -1 -4.48967e-011 4.76501e-027   
     length 1.69144   
     axis -3.27502e-015 -90 -90   XYZ
    dof ry
    limits (-180.0 0.0)
  end
  begin
     id 28
     name rhand
     direction -1 -4.48902e-011 9.53292e-027   
     length 0.817967   
     axis -6.08098e-015 -90 -90   XYZ
    dof rx rz
    limits (-90.0 90.0)
           (-45.0 45.0)
  end
  begin
     id 29
     name rfingers
     direction -1 -4.49012e-011 1.90561e-026   
     length 0.659466   
     axis -1.21619e-014 -90 -90   XYZ
    dof rx
    limits (0.0 90.0)
  end
  begin
     id 30
     name rthumb
     direction -0.707107 -6.34944e-011 0.707107   
     length 0.946865   
     axis -90 -45 9.86923e-015   XYZ
    dof rx rz
    limits (-45.0 45.0)
           (-45.0 45.0)
  end
:hierarchy
  begin
    root lhipjoint rhipjoint lowerback
    lhipjoint lfemur
    lfemur ltibia
    ltibia lfoot
    lfoot ltoes
    rhipjoint rfemur
    rfemur rtibia
    rtibia rfoot
    rfoot rtoes
    lowerback upperback
    upperback thorax
    thorax lowerneck lclavicle rclavicle
    lowerneck upperneck
    upperneck head
    lclavicle lhumerus
    lhumerus lradius
    lradius lwrist
    lwrist lhand lthumb
    lhand lfingers
    rclavicle rhumerus
    rhumerus rradius
    rradius rwrist
    rwrist rhand rthumb
    rhand rfingers
  end

#!OML:ASF F:\twosubjects\two\wednesday\Session 1\Justin1.ASF
:FULLY-SPECIFIED
:DEGREES
1
root -1.18218 17.9024 22.8469 -170.481 -2.85027 -176.672
lowerback 2.20213 0.189046 2.79218
upperback 0.063508 0.199246 3.55584
thorax -1.17017 0.0220428 2.08016
lowerneck -13.9194 -5.49573 -13.9023
upperneck 11.5781 -5.4368 4.89925
head 6.32357 -2.90591 3.26816
rclavicle -3.97569e-015 -1.51076e-014
rhumerus -32.5013 -15.8248 -75.9154
rradius 29.929
rwrist -9.39066
rhand -16.0392 19.3803
rfingers 7.12502
rthumb 10.1624 -10.3542
lclavicle -3.97569e-015 -1.51076e-014
lhumerus -30.1667 12.5193 85.9645
lradius 28.0791
lwrist -10.4737
lhand -1.52218 36.6073
lfingers 7.12502
lthumb 24.1316 65.1096
rfemur 1.44165 -0.692357 28.6821
rtibia 10.6213
rfoot -18.1116 1.98866
rtoes 12.8207
lfemur -37.5333 4.67568 -15.2859
ltibia 42.5567
lfoot -14.1761 1.42229
ltoes -16.7572
2
root -1.19374 17.9177 22.7903 -170.421 -2.65519 -176.458
lowerback 2.32302 0.294806 3.04194
upperback 0.0469495 0.351262 3.52365
thorax -1.25541 0.0947646 1.90213
lowerneck -14.0756 -5.5753 -13.5709
upperneck 11.7133 -5.55491 4.64595
head 6.38728 -2.96965 3.1173
rclavicle 4.96962e-015 -1.66979e-014
rhumerus -32.6335 -16.0415 -75.9152
rradius 29.8719
rwrist -9.0985
rhand -15.3678 19.3481
rfingers 7.12502
rthumb 10.81 -10.3537
lclavicle 4.96962e-015 -1.66979e-014
lhumerus -30.1921 12.2762 85.8924
lradius 27.9841
lwrist -10.4467
lhand -1.38078 36.4655
lfingers 7.12502
lthumb 24.2672 64.9497
rfemur 2.80568 -0.568974 28.829
rtibia 8.15346
rfoot -16.9445 1.90017
rtoes 12.0165
lfemur -38.0027 4.45821 -14.8327
ltibia 41.8309
lfoot -13.5943 1.47788
ltoes -13.4368
3
root -1.20473 17.9148 22.7348 -170.455 -2.44341 -176.469
lowerback 2.57499 0.32971 3.01277
upperback 0.0284563 0.415183 3.4667
thorax -1.41639 0.127299 1.85702
lowerneck -14.1755 -5.55561 -13.3265
upperneck 11.7579 -5.53117 4.40967
head 6.40217 -2.96646 3.00242
rclavicle -5.76476e-015 -5.80451e-014
rhumerus -32.8115 -15.8735 -76.0233
rradius 29.9647
rwrist -8.99611
rhand -15.7086 19.2263
rfingers 7.12502
rthumb 10.4812 -10.4925
lclavicle -5.76476e-015 -5.80451e-014
lhumerus -30.3719 11.8812 85.9005
lradius 28.1092
lwrist -10.0925
lhand -1.83675 36.7107
lfingers 7.12502
lthumb 23.83 65.2527
rfemur 3.27624 -0.481385 28.7502
rtibia 7.71522
rfoot -16.885 1.74103
rtoes 9.79944
lfemur -38.2118 4.28547 -14.7027
ltibia 40.6178
lfoot -12.8369 1.66559
ltoes -6.15131
4
root -1.21407 17.8992 22.6796 -170.549 -2.30286 -176.53
lowerback 2.78851 0.336048 2.89715
upperback 0.0295837 0.433754 3.45133
thorax -1.53614 0.137583 1.90473
lowerneck -14.0809 -5.48229 -13.4957
upperneck 11.7823 -5.43751 4.58748
head 6.39562 -2.91678 3.0992
rclavicle -3.97569e-015 -2.38542e-015
rhumerus -33.006 -15.9538 -75.8857
rradius 29.9831
rwrist -8.9695
rhand -15.1318 19.0238
rfingers 7.12502
rthumb 11.0376 -10.666
lclavicle -3.97569e-015 -2.38542e-015
lhumerus -30.5713 11.6745 85.9456
lradius 28.2177
lwrist -9.8028
lhand -1.91429 37.1683
lfingers 7.12502
lthumb 23.7556 65.7199
rfemur 3.99247 -0.479807 28.6234
rtibia 6.98633
rfoot -16.713 1.72526
rtoes 9.07369
lfemur -38.4228 4.30206 -14.7431
ltibia 39.4286
lfoot -12.3888 1.55371
ltoes -13.3544
5
root -1.22638 17.8651 22.6191 -170.554 -2.17573 -176.445
lowerback 2.93268 0.431385 3.15648
upperback 0.049634 0.581931 3.2685
thorax -1.59359 0.212153 1.56432
lowerneck -14.2933 -5.52565 -13.2213
upperneck 11.9565 -5.5308 4.68434
head 6.48985 -2.94016 3.07398
rclavicle 2.98177e-015 3.81667e-014
rhumerus -33.1795 -16.6466 -75.8126
rradius 29.9447
rwrist -9.03297
rhand -14.751 19.2335
rfingers 7.12502
rthumb 11.4049 -10.4364
lclavicle 2.98177e-015 3.81667e-014
lhumerus -30.5751 11.3928 85.7636
lradius 28.2273
lwrist -9.73363
lhand -1.56733 37.19
lfingers 7.12502
lthumb 24.0883 65.698
rfemur 4.34109 -0.453638 28.6549
rtibia 6.8522
rfoot -16.8378 1.83766
rtoes 9.34714
lfemur -38.6828 4.49791 -14.7648
ltibia 38.1314
lfoot -11.9805 1.57645
ltoes -21.3892
6
root -1.23896 17.8406 22.5574 -170.494 -2.03326 -176.026
lowerback 3.0716 0.471866 3.67907
upperback 0.0146881 0.655717 3.25016
thorax -1.7012 0.240127 1.24956
lowerneck -14.3989 -5.4773 -12.9151
upperneck 11.9383 -5.49748 4.61388
head 6.48716 -2.91208 3.00508
rclavicle 5.56597e-015 -2.54444e-014
rhumerus -33.2867 -16.8701 -75.8386
rradius 29.8676
rwrist -9.0644
rhand -15.2672 19.5132
rfingers 7.12502
rthumb 10.907 -10.1835
lclavicle 5.56597e-015 -2.54444e-014
lhumerus -30.6699 11.4311 85.5285
lradius 28.2196
lwrist -9.76521
lhand -1.27134 36.8306
lfingers 7.12502
lthumb 24.3721 65.3007
rfemur 4.42853 -0.348568 29.0457
rtibia 6.9937
rfoot -17.1627 1.90605
rtoes 9.07495
lfemur -38.9992 4.6331 -14.334
ltibia 36.8557
lfoot -11.4945 1.74835
ltoes -26.2182
7
root -1.24824 17.8407 22.4983 -170.417 -1.85882 -175.841
lowerback 3.11506 0.451792 3.69635
upperback 0.0801946 0.618483 3.39547
thorax -1.65955 0.217218 1.39127
lowerneck -14.4871 -5.38175 -13.0388
upperneck 11.7336 -5.33221 4.68387
head 6.42671 -2.82533 3.06453
rclavicle 1.28216e-014 5.08889e-014
rhumerus -33.0871 -16.8655 -75.697
rradius 29.6969
rwrist -8.8557
rhand -14.5877 19.969
rfingers 7.12502
rthumb 11.5624 -9.69204
lclavicle 1.28216e-014 5.08889e-014
lhumerus -30.6345 11.5528 85.6299
lradius 28.2443
lwrist -9.74617
lhand -1.16618 37.0111
lfingers 7.12502
lthumb 24.4729 65.4676
rfemur 4.62689 -0.246953 29.1761
rtibia 6.88335
rfoot -17.3611 2.01741
rtoes 9.24361
lfemur -39.2705 4.7986 -14.099
ltibia 35.6363
lfoot -11.0764 1.62452
ltoes -28.0209
8
root -1.26131 17.8396 22.4339 -170.317 -1.67762 -175.978
lowerback 2.81238 0.43417 3.26781
upperback 0.347587 0.541588 3.57136
thorax -1.22085 0.183068 1.81671
lowerneck -14.7436 -5.40069 -13.3157
upperneck 11.5622 -5.26665 4.7426
head 6.41806 -2.79361 3.12987
rclavicle -1.98785e-016 -3.18055e-015
rhumerus -32.561 -16.7635 -75.5084
rradius 29.5471
rwrist -8.60997
rhand -14.147 20.3891
rfingers 7.12502
rthumb 11.9874 -9.24762
lclavicle -1.98785e-016 -3.18055e-015
lhumerus -30.3625 11.619 86.042
lradius 28.3188
lwrist -9.58856
lhand -1.41729 37.5322
lfingers 7.12502
lthumb 24.2322 66.0211
rfemur 5.18066 -0.187556 28.9557
rtibia 6.04928
rfoot -16.9839 2.1189
rtoes 10.2669
lfemur -39.5331 4.98536 -14.2755
ltibia 34.4854
lfoot -10.6487 1.21781
ltoes -28.4941
9
root -1.28088 17.8297 22.3639 -170.363 -1.44698 -175.98
lowerback 2.77191 0.451299 3.17174
upperback 0.444225 0.549414 3.63673
thorax -1.10045 0.186272 1.93786
lowerneck -14.5395 -5.3667 -13.3196
upperneck 11.3557 -5.23105 4.60924
head 6.31103 -2.78606 3.09433
rclavicle -5.96354e-016 2.3059e-014
rhumerus -32.5253 -16.5987 -75.3995
rradius 29.5304
rwrist -8.45652
rhand -14.3497 19.9041
rfingers 7.12502
rthumb 11.7919 -9.74395
lclavicle -5.96354e-016 2.3059e-014
lhumerus -30.5021 11.8293 86.0943
lradius 28.359
lwrist -9.56639
lhand -1.61783 37.5683
lfingers 7.12502
lthumb 24.0399 66.0827
rfemur 6.34024 -0.0762877 28.8317
rtibia 4.37347
rfoot -16.0457 2.11147
rtoes 10.7238
lfemur -39.635 4.73164 -14.1347
ltibia 33.4121
lfoot -10.1473 1.20391
ltoes -27.9314
10
root -1.29684 17.8187 22.2946 -170.55 -1.12952 -175.839
lowerback 3.23554 0.572934 3.35083
upperback 0.485675 0.741124 3.55375
thorax -1.3162 0.279336 1.74201
lowerneck -14.7082 -5.35781 -12.8892
upperneck 11.2754 -5.2366 4.2975
head 6.29311 -2.78986 2.92181
rclavicle 9.74045e-015 2.78299e-014
rhumerus -32.6425 -16.9345 -75.3056
rradius 29.5435
rwrist -8.59565
rhand -14.4031 19.6268
rfingers 7.12502
rthumb 11.7404 -10.0242
lclavicle 9.74045e-015 2.78299e-014
lhumerus -30.5396 11.9351 85.8734
lradius 28.1819
lwrist -9.86119
lhand -1.61811 37.1011
lfingers 7.12502
lthumb 24.0396 65.6156
rfemur 9.03154 0.122384 28.8947
rtibia -2.22639e-014
rfoot -13.8723 1.91601
rtoes 9.31858
lfemur -39.5898 4.40255 -13.7318
ltibia 32.4296
lfoot -9.92254 1.59278
ltoes -28.0688
